<svg width="48" height="38" viewBox="0 0 48 38" fill="none" xmlns="http://www.w3.org/2000/svg">
<path d="M21.6098 22.3433H21.751L21.8713 22.2694C24.6014 20.5943 27.2679 19.191 29.9034 18.7211H35.8478V31.9748L30.0141 34.9062L30.0018 34.9123L29.9899 34.9192C26.0051 37.2034 22.0611 37.279 18.0875 34.9229L18.0632 34.9085L18.0375 34.8969C12.3831 32.3558 6.85547 29.2103 1.46198 25.3883C0.27422 24.2253 0.295982 22.8886 0.934971 21.9679C1.58506 21.0312 2.93994 20.4347 4.60833 20.9569L11.9098 24.4869L12.5896 26.0358L12.6063 26.0739L12.6291 26.1087C14.278 28.6268 16.9621 29.1876 19.9881 29.1914H19.9887C20.201 29.1914 20.4257 29.2129 20.6835 29.2376C20.7334 29.2423 20.7845 29.2472 20.837 29.2521C21.1405 29.2803 21.4826 29.3068 21.8217 29.2827C22.3511 29.2765 22.793 29.1038 23.1055 28.8018C23.4187 28.4992 23.5704 28.0959 23.5638 27.6981C23.5572 27.3008 23.3927 26.9046 23.0737 26.6161C22.7507 26.324 22.3022 26.1707 21.777 26.1962L21.7673 26.1967L21.7576 26.1975C19.3444 26.409 17.1992 26.4488 15.6042 25.3065L15.5975 25.3017L15.5907 25.2972C15.1008 24.97 14.8377 24.6261 14.7186 24.3205C14.6014 24.0196 14.6114 23.726 14.7186 23.4584C14.936 22.9156 15.5991 22.4053 16.586 22.3433H21.6098ZM23.1645 10.6521H22.6645V11.1521V16.708H13.8326V11.1216V10.6216H13.3326H9.67853L18.2818 0.760452L26.9158 10.6521H23.1645ZM38.8009 33.1961V17.369H47.5V33.1961H38.8009Z" fill="white" stroke="black"/>
</svg>
