<svg width="17" height="17" viewBox="0 0 17 17" fill="none" xmlns="http://www.w3.org/2000/svg">
<mask id="mask0_226_679" style="mask-type:alpha" maskUnits="userSpaceOnUse" x="-2" y="-2" width="21" height="21">
<rect x="-1.69996" y="-1.69996" width="20.4" height="20.4" fill="#D9D9D9"/>
</mask>
<g mask="url(#mask0_226_679)">
<path d="M7.65002 12.75H9.35002V9.35002H12.75V7.65002H9.35002V4.25001H7.65002V7.65002H4.25001V9.35002H7.65002V12.75ZM8.50002 17C7.32418 17 6.21918 16.7769 5.18501 16.3307C4.15084 15.8844 3.25126 15.2788 2.48626 14.5138C1.72125 13.7488 1.11563 12.8492 0.669377 11.815C0.223126 10.7809 0 9.67586 0 8.50002C0 7.32418 0.223126 6.21918 0.669377 5.18501C1.11563 4.15084 1.72125 3.25126 2.48626 2.48626C3.25126 1.72125 4.15084 1.11563 5.18501 0.669377C6.21918 0.223126 7.32418 0 8.50002 0C9.67586 0 10.7809 0.223126 11.815 0.669377C12.8492 1.11563 13.7488 1.72125 14.5138 2.48626C15.2788 3.25126 15.8844 4.15084 16.3307 5.18501C16.7769 6.21918 17 7.32418 17 8.50002C17 9.67586 16.7769 10.7809 16.3307 11.815C15.8844 12.8492 15.2788 13.7488 14.5138 14.5138C13.7488 15.2788 12.8492 15.8844 11.815 16.3307C10.7809 16.7769 9.67586 17 8.50002 17ZM8.50002 15.3C10.3984 15.3 12.0063 14.6413 13.3238 13.3238C14.6413 12.0063 15.3 10.3984 15.3 8.50002C15.3 6.60168 14.6413 4.99376 13.3238 3.67626C12.0063 2.35876 10.3984 1.7 8.50002 1.7C6.60168 1.7 4.99376 2.35876 3.67626 3.67626C2.35876 4.99376 1.7 6.60168 1.7 8.50002C1.7 10.3984 2.35876 12.0063 3.67626 13.3238C4.99376 14.6413 6.60168 15.3 8.50002 15.3Z" fill="#919191"/>
</g>
</svg>
