<svg width="33" height="33" viewBox="0 0 33 33" fill="none" xmlns="http://www.w3.org/2000/svg">
<path fill-rule="evenodd" clip-rule="evenodd" d="M10.9339 7.36659C11.6938 6.78291 12.593 6.34433 13.6437 6.07231C13.6313 5.96659 13.625 5.85904 13.625 5.75C13.625 4.23122 14.8563 3 16.375 3C17.8938 3 19.125 4.23122 19.125 5.75C19.125 5.85904 19.1187 5.96659 19.1063 6.07231C20.1571 6.34433 21.0563 6.78291 21.8162 7.36659C23.1579 8.39714 23.9349 9.78006 24.3947 11.1587C24.8511 12.5273 25.0158 13.9532 25.0961 15.1543C25.1287 15.6419 25.1483 16.1108 25.1656 16.5241L25.1775 16.8029C25.1991 17.2992 25.2204 17.6691 25.257 17.9425C25.526 19.9524 25.86 21.3622 26.3352 22.4894C26.7997 23.5912 27.4224 24.4778 28.3473 25.4027C28.7405 25.796 28.8582 26.3874 28.6454 26.9012C28.4325 27.4151 27.9312 27.75 27.375 27.75H18.7572C18.9911 28.1545 19.125 28.6241 19.125 29.125C19.125 30.6438 17.8938 31.875 16.375 31.875C14.8563 31.875 13.625 30.6438 13.625 29.125C13.625 28.6241 13.7589 28.1545 13.993 27.75H5.37504C4.81891 27.75 4.31753 27.4151 4.10471 26.9012C3.89188 26.3874 4.00952 25.796 4.40277 25.4027C5.32954 24.476 5.95058 23.5957 6.41385 22.4987C6.88805 21.3758 7.22218 19.9668 7.49309 17.9425C7.52971 17.6691 7.55101 17.2992 7.57262 16.8029L7.58445 16.5241C7.60174 16.1108 7.62135 15.6419 7.65398 15.1543C7.73436 13.9532 7.89896 12.5273 8.3554 11.1587C8.8152 9.78006 9.5922 8.39714 10.9339 7.36659ZM8.21945 25C8.49031 24.5519 8.73186 24.0785 8.94721 23.5686C9.55891 22.1202 9.93398 20.4354 10.2188 18.3075C10.2742 17.8934 10.2991 17.4039 10.32 16.9226L10.3326 16.6256C10.3499 16.2144 10.3677 15.7878 10.3978 15.3379C10.4727 14.2186 10.618 13.0665 10.9641 12.0288C11.3068 11.0012 11.825 10.1497 12.6091 9.54747C13.3841 8.95214 14.5494 8.5 16.375 8.5C18.2007 8.5 19.3659 8.95214 20.141 9.54747C20.9251 10.1497 21.4432 11.0012 21.7859 12.0288C22.132 13.0665 22.2773 14.2186 22.3523 15.3379C22.3824 15.7878 22.4003 16.2144 22.4174 16.6256L22.4301 16.9226C22.451 17.4039 22.4759 17.8934 22.5313 18.3075C22.8144 20.4226 23.1895 22.1066 23.8011 23.5575C24.0177 24.071 24.2606 24.5482 24.5334 25H8.21945Z" fill="black"/>
</svg>
