<svg width="42" height="42" viewBox="0 0 42 42" fill="none" xmlns="http://www.w3.org/2000/svg">
<path d="M21 28.8312C23.8875 26.4979 26.0677 24.2521 27.5406 22.0937C29.0135 19.9354 29.75 17.9083 29.75 16.0125C29.75 14.3792 29.451 12.9865 28.8531 11.8344C28.2552 10.6823 27.5188 9.74896 26.6438 9.03437C25.7688 8.31979 24.8208 7.80208 23.8 7.48125C22.7792 7.16042 21.8458 7 21 7C20.1542 7 19.2208 7.16042 18.2 7.48125C17.1792 7.80208 16.2313 8.31979 15.3563 9.03437C14.4813 9.74896 13.7448 10.6823 13.1469 11.8344C12.549 12.9865 12.25 14.3792 12.25 16.0125C12.25 17.9083 12.9865 19.9354 14.4594 22.0937C15.9323 24.2521 18.1125 26.4979 21 28.8312ZM21 33.25C16.8875 30.2167 13.8177 27.2708 11.7906 24.4125C9.76354 21.5542 8.75 18.7542 8.75 16.0125C8.75 13.9417 9.12187 12.126 9.86563 10.5656C10.6094 9.00521 11.5646 7.7 12.7313 6.65C13.8979 5.6 15.2104 4.8125 16.6688 4.2875C18.1271 3.7625 19.5708 3.5 21 3.5C22.4292 3.5 23.8729 3.7625 25.3313 4.2875C26.7896 4.8125 28.1021 5.6 29.2688 6.65C30.4354 7.7 31.3906 9.00521 32.1344 10.5656C32.8781 12.126 33.25 13.9417 33.25 16.0125C33.25 18.7542 32.2365 21.5542 30.2094 24.4125C28.1823 27.2708 25.1125 30.2167 21 33.25ZM21 19.25C21.9625 19.25 22.7865 18.9073 23.4719 18.2219C24.1573 17.5365 24.5 16.7125 24.5 15.75C24.5 14.7875 24.1573 13.9635 23.4719 13.2781C22.7865 12.5927 21.9625 12.25 21 12.25C20.0375 12.25 19.2135 12.5927 18.5281 13.2781C17.8427 13.9635 17.5 14.7875 17.5 15.75C17.5 16.7125 17.8427 17.5365 18.5281 18.2219C19.2135 18.9073 20.0375 19.25 21 19.25ZM8.75 38.5V35H33.25V38.5H8.75Z" fill="#919191"/>
</svg>
