<svg width="28" height="35" viewBox="0 0 28 35" fill="none" xmlns="http://www.w3.org/2000/svg">
<path d="M0 29.75V26.25H3.5V14C3.5 11.5792 4.22917 9.42813 5.6875 7.54688C7.14584 5.66563 9.04167 4.43333 11.375 3.85V2.625C11.375 1.89583 11.6302 1.27604 12.1406 0.765625C12.651 0.255208 13.2708 0 14 0C14.7292 0 15.349 0.255208 15.8594 0.765625C16.3698 1.27604 16.625 1.89583 16.625 2.625V3.85C18.9583 4.43333 20.8542 5.66563 22.3125 7.54688C23.7708 9.42813 24.5 11.5792 24.5 14V26.25H28V29.75H0ZM14 35C13.0375 35 12.2135 34.6573 11.5281 33.9719C10.8427 33.2865 10.5 32.4625 10.5 31.5H17.5C17.5 32.4625 17.1573 33.2865 16.4719 33.9719C15.7865 34.6573 14.9625 35 14 35ZM7 26.25H21V14C21 12.075 20.3146 10.4271 18.9438 9.05625C17.5729 7.68542 15.925 7 14 7C12.075 7 10.4271 7.68542 9.05625 9.05625C7.68542 10.4271 7 12.075 7 14V26.25Z" fill="#DABA15"/>
</svg>
