<svg width="286" height="270" viewBox="0 0 286 270" fill="none" xmlns="http://www.w3.org/2000/svg">
<g filter="url(#filter0_d_90_3633)">
<path d="M99.6804 49.265C96.7065 50.237 88.2426 55.151 82.009 59.471C79.0352 61.577 73.6022 66.059 69.9993 69.515C56.2739 82.583 48.3819 96.461 44.2071 114.929C43.1205 119.735 42.9489 122.273 42.8917 131.669C42.8917 141.821 43.0061 143.225 44.4358 148.679C47.1237 159.155 49.5256 164.987 54.787 173.411C63.251 186.965 77.1479 200.141 91.4452 208.079C103.912 214.991 119.525 219.851 131.649 220.607L137.482 220.931V212.075C137.482 202.463 136.968 198.251 135.08 192.419C132.736 185.075 129.361 179.729 122.956 173.357C117.866 168.281 112.548 164.501 102.139 158.669C93.3324 153.755 90.0726 150.947 79.893 139.661C74.2885 133.451 72.63 132.641 68.684 134.261C65.5386 135.611 63.9945 138.257 64.5092 141.605C65.0239 144.683 65.8817 145.817 75.2607 155.051C90.0154 169.685 91.1592 170.981 91.1592 173.033C91.1592 176.489 87.8423 179.189 84.5825 178.433C83.3243 178.109 65.081 160.073 59.4193 153.539C50.0403 142.739 53.7004 128.213 66.8539 124.325L69.9993 123.353L69.6562 115.793C69.1987 106.667 69.8849 101.699 72.344 95.273C76.6332 83.987 85.5547 74.969 102.025 65.087C108.831 61.037 110.603 59.039 110.603 55.583C110.603 50.075 105.685 47.213 99.6804 49.265Z" fill="white"/>
<path d="M178.201 49.373C177.171 49.859 175.913 51.047 175.399 51.911C174.255 54.071 174.655 58.877 176.142 60.443C176.714 61.091 180.202 63.467 183.805 65.681C199.933 75.563 207.653 83.285 212.228 93.977C214.916 100.187 216.003 106.829 215.545 113.849C214.802 124.919 214.63 123.785 217.375 124.109C222.522 124.811 228.584 130.103 230.243 135.395C231.444 139.391 231.158 144.413 229.442 147.869C227.784 151.433 225.267 154.241 212.8 166.985C202.735 177.245 201.019 178.649 198.56 178.649C196.33 178.649 194.099 175.895 194.099 173.195C194.099 170.873 193.928 171.089 206.681 158.399C221.15 144.035 220.406 144.953 220.406 140.795C220.406 137.069 218.805 134.585 215.774 133.775C212.057 132.695 209.826 134.045 202.964 141.605C194.5 151.055 191.64 153.539 185.521 156.941C171.967 164.447 167.392 167.633 161.101 173.951C154.982 180.107 150.293 188.909 148.577 197.387C147.605 202.355 147.433 220.553 148.405 220.877C149.949 221.363 160.129 220.067 166.363 218.609C182.719 214.721 194.5 208.997 207.71 198.467C233.445 177.947 245.798 149.921 241.852 120.869C238.192 93.815 222.465 71.081 196.387 55.313C185.578 48.779 181.975 47.591 178.201 49.373Z" fill="white"/>
<path d="M114.035 73.6729C104.027 75.5089 94.1902 81.6109 87.8994 89.9269C80.8652 99.269 79.4355 113.525 84.2965 125.837C86.5841 131.723 94.5906 141.065 101.739 146.249C103.34 147.383 107.458 149.921 110.889 151.919C123.299 159.047 131.134 165.743 135.366 172.817L138.054 177.299V172.007C138.054 164.771 137.425 163.799 127.875 155.159C109.288 138.473 100.024 129.347 98.1363 125.891C95.8487 121.787 94.0187 115.253 94.0187 111.149C94.0187 107.261 95.8487 100.511 97.7931 97.0549C105.742 83.2849 125.244 80.5849 138.626 91.3849C140.342 92.7349 142.229 93.8689 142.801 93.8689C143.43 93.8689 145.146 92.7889 146.633 91.4929C154.639 84.4189 167.278 82.7449 177.057 87.4429C181.06 89.3869 185.864 94.3549 188.266 99.1069L190.382 103.319V110.879C190.382 117.953 190.268 118.655 188.781 121.949C185.407 129.455 181.289 133.883 164.59 148.193C148.062 162.341 147.204 163.367 147.204 170.495C147.204 172.925 147.433 174.869 147.719 174.869C148.005 174.869 149.263 173.357 150.407 171.521C152.98 167.525 159.729 160.937 164.876 157.373C166.935 155.969 171.567 153.161 175.17 151.109C186.722 144.629 194.614 137.339 199.132 129.077C202.792 122.381 203.478 119.519 203.478 111.149C203.478 104.561 203.364 103.427 201.934 99.5929C198.789 91.1149 193.642 84.6349 186.264 79.9369C178.487 74.9689 173.969 73.6729 164.647 73.6729C158.585 73.6729 157.212 73.8349 153.209 75.1309C150.693 75.9949 147.433 77.3989 146.003 78.2629C142.801 80.2069 142.343 80.2069 139.541 78.4249C138.34 77.6689 135.252 76.2649 132.678 75.4009C128.79 73.9969 127.074 73.727 121.755 73.6189C118.324 73.5109 114.835 73.5649 114.035 73.6729Z" fill="white"/>
</g>
<defs>
<filter id="filter0_d_90_3633" x="-4" y="0" width="293.945" height="278" filterUnits="userSpaceOnUse" color-interpolation-filters="sRGB">
<feFlood flood-opacity="0" result="BackgroundImageFix"/>
<feColorMatrix in="SourceAlpha" type="matrix" values="0 0 0 0 0 0 0 0 0 0 0 0 0 0 0 0 0 0 127 0" result="hardAlpha"/>
<feOffset dy="4"/>
<feGaussianBlur stdDeviation="2"/>
<feComposite in2="hardAlpha" operator="out"/>
<feColorMatrix type="matrix" values="0 0 0 0 0 0 0 0 0 0 0 0 0 0 0 0 0 0 0.25 0"/>
<feBlend mode="normal" in2="BackgroundImageFix" result="effect1_dropShadow_90_3633"/>
<feBlend mode="normal" in="SourceGraphic" in2="effect1_dropShadow_90_3633" result="shape"/>
</filter>
</defs>
</svg>
