<svg width="28" height="35" viewBox="0 0 28 35" fill="none" xmlns="http://www.w3.org/2000/svg">
<path d="M0 29.75V26.25H3.49999V14C3.49999 11.5791 4.22916 9.42811 5.68749 7.54686C7.14582 5.66562 9.04165 4.43333 11.375 3.84999V2.625C11.375 1.89583 11.6302 1.27604 12.1406 0.765624C12.651 0.255208 13.2708 0 14 0C14.7291 0 15.3489 0.255208 15.8594 0.765624C16.3698 1.27604 16.625 1.89583 16.625 2.625V3.84999C18.9583 4.43333 20.8541 5.66562 22.3125 7.54686C23.7708 9.42811 24.5 11.5791 24.5 14V26.25H28V29.75H0ZM14 34.9999C13.0375 34.9999 12.2135 34.6572 11.5281 33.9718C10.8427 33.2864 10.5 32.4624 10.5 31.5H17.5C17.5 32.4624 17.1573 33.2864 16.4719 33.9718C15.7864 34.6572 14.9625 34.9999 14 34.9999ZM6.99999 26.25H21V14C21 12.075 20.3146 10.4271 18.9437 9.05624C17.5729 7.6854 15.925 6.99999 14 6.99999C12.075 6.99999 10.4271 7.6854 9.05624 9.05624C7.68541 10.4271 6.99999 12.075 6.99999 14V26.25Z" fill="#919191"/>
</svg>
