<svg width="83" height="83" viewBox="0 0 83 83" fill="none" xmlns="http://www.w3.org/2000/svg">
<path d="M35.69 60.59L64.9475 31.3325L59.1375 25.5225L35.69 48.97L23.8625 37.1425L18.0525 42.9525L35.69 60.59ZM41.5 83C35.7592 83 30.3642 81.9106 25.315 79.7319C20.2658 77.5531 15.8738 74.5963 12.1387 70.8613C8.40375 67.1263 5.44688 62.7342 3.26812 57.685C1.08937 52.6358 0 47.2408 0 41.5C0 35.7592 1.08937 30.3642 3.26812 25.315C5.44688 20.2658 8.40375 15.8738 12.1387 12.1387C15.8738 8.40375 20.2658 5.44688 25.315 3.26812C30.3642 1.08937 35.7592 0 41.5 0C47.2408 0 52.6358 1.08937 57.685 3.26812C62.7342 5.44688 67.1263 8.40375 70.8613 12.1387C74.5963 15.8738 77.5531 20.2658 79.7319 25.315C81.9106 30.3642 83 35.7592 83 41.5C83 47.2408 81.9106 52.6358 79.7319 57.685C77.5531 62.7342 74.5963 67.1263 70.8613 70.8613C67.1263 74.5963 62.7342 77.5531 57.685 79.7319C52.6358 81.9106 47.2408 83 41.5 83ZM41.5 74.7C50.7683 74.7 58.6188 71.4838 65.0513 65.0513C71.4838 58.6188 74.7 50.7683 74.7 41.5C74.7 32.2317 71.4838 24.3813 65.0513 17.9488C58.6188 11.5163 50.7683 8.3 41.5 8.3C32.2317 8.3 24.3813 11.5163 17.9488 17.9488C11.5163 24.3813 8.3 32.2317 8.3 41.5C8.3 50.7683 11.5163 58.6188 17.9488 65.0513C24.3813 71.4838 32.2317 74.7 41.5 74.7Z" fill="#2AA100"/>
</svg>
