<svg width="43" height="50" viewBox="0 0 43 50" fill="none" xmlns="http://www.w3.org/2000/svg">
<path d="M18.1053 49.7895C12.0325 44.6219 7.49671 39.8221 4.49803 35.3901C1.49934 30.9581 0 26.8561 0 23.0842C0 17.4263 1.81996 12.9189 5.45987 9.56184C9.09978 6.20482 13.3149 4.52632 18.1053 4.52632H19.2368C19.614 4.52632 19.9912 4.56403 20.3684 4.63947V9.22237C19.9912 9.14693 19.6235 9.09978 19.2651 9.08092C18.9068 9.06206 18.5202 9.05263 18.1053 9.05263C14.2956 9.05263 11.08 10.3634 8.45855 12.9849C5.83706 15.6064 4.52632 18.9728 4.52632 23.0842C4.52632 25.7623 5.63904 28.827 7.86447 32.2783C10.0899 35.7296 13.5035 39.5675 18.1053 43.7921C22.707 39.5675 26.1206 35.7296 28.3461 32.2783C30.5715 28.827 31.6842 25.7623 31.6842 23.0842V22.6316H36.2105V23.0842C36.2105 26.8561 34.7112 30.9581 31.7125 35.3901C28.7138 39.8221 24.1781 44.6219 18.1053 49.7895ZM18.1053 27.1579C19.35 27.1579 20.4156 26.7147 21.302 25.8283C22.1884 24.9419 22.6316 23.8763 22.6316 22.6316C22.6316 21.3868 22.1884 20.3213 21.302 19.4349C20.4156 18.5485 19.35 18.1053 18.1053 18.1053C16.8605 18.1053 15.795 18.5485 14.9086 19.4349C14.0221 20.3213 13.5789 21.3868 13.5789 22.6316C13.5789 23.8763 14.0221 24.9419 14.9086 25.8283C15.795 26.7147 16.8605 27.1579 18.1053 27.1579ZM31.6842 18.1053H36.2105V11.3158H43V6.78947H36.2105V0H31.6842V6.78947H24.8947V11.3158H31.6842V18.1053Z" fill="#919191"/>
</svg>
