<svg width="40" height="38" viewBox="0 0 40 38" fill="none" xmlns="http://www.w3.org/2000/svg">
<path d="M9.74998 27.075C11.1666 26.0458 12.75 25.2343 14.5 24.6406C16.25 24.0468 18.0833 23.75 20 23.75C21.9166 23.75 23.75 24.0468 25.5 24.6406C27.25 25.2343 28.8333 26.0458 30.25 27.075C31.2222 25.993 31.9791 24.7659 32.5208 23.3937C33.0625 22.0215 33.3333 20.5569 33.3333 19C33.3333 15.4902 32.0347 12.5017 29.4375 10.0343C26.8403 7.56697 23.6944 6.33329 20 6.33329C16.3055 6.33329 13.1597 7.56697 10.5625 10.0343C7.96526 12.5017 6.66665 15.4902 6.66665 19C6.66665 20.5569 6.93748 22.0215 7.47915 23.3937C8.02081 24.7659 8.77776 25.993 9.74998 27.075ZM20 20.5833C18.3611 20.5833 16.9791 20.0489 15.8541 18.9802C14.7291 17.9114 14.1666 16.5986 14.1666 15.0416C14.1666 13.4847 14.7291 12.1718 15.8541 11.1031C16.9791 10.0343 18.3611 9.49996 20 9.49996C21.6389 9.49996 23.0208 10.0343 24.1458 11.1031C25.2708 12.1718 25.8333 13.4847 25.8333 15.0416C25.8333 16.5986 25.2708 17.9114 24.1458 18.9802C23.0208 20.0489 21.6389 20.5833 20 20.5833ZM20 34.8333C17.6944 34.8333 15.5278 34.4177 13.5 33.5864C11.4722 32.7552 9.70831 31.627 8.20831 30.202C6.70831 28.777 5.52081 27.1013 4.64581 25.175C3.77081 23.2486 3.33331 21.1902 3.33331 19C3.33331 16.8097 3.77081 14.7513 4.64581 12.825C5.52081 10.8986 6.70831 9.22288 8.20831 7.79788C9.70831 6.37288 11.4722 5.24475 13.5 4.4135C15.5278 3.58225 17.6944 3.16663 20 3.16663C22.3055 3.16663 24.4722 3.58225 26.5 4.4135C28.5278 5.24475 30.2916 6.37288 31.7916 7.79788C33.2916 9.22288 34.4791 10.8986 35.3541 12.825C36.2291 14.7513 36.6666 16.8097 36.6666 19C36.6666 21.1902 36.2291 23.2486 35.3541 25.175C34.4791 27.1013 33.2916 28.777 31.7916 30.202C30.2916 31.627 28.5278 32.7552 26.5 33.5864C24.4722 34.4177 22.3055 34.8333 20 34.8333ZM20 31.6666C21.4722 31.6666 22.8611 31.4621 24.1666 31.0531C25.4722 30.6441 26.6666 30.0569 27.75 29.2916C26.6666 28.5263 25.4722 27.9392 24.1666 27.5302C22.8611 27.1211 21.4722 26.9166 20 26.9166C18.5278 26.9166 17.1389 27.1211 15.8333 27.5302C14.5278 27.9392 13.3333 28.5263 12.25 29.2916C13.3333 30.0569 14.5278 30.6441 15.8333 31.0531C17.1389 31.4621 18.5278 31.6666 20 31.6666ZM20 17.4166C20.7222 17.4166 21.3194 17.1923 21.7916 16.7437C22.2639 16.2951 22.5 15.7277 22.5 15.0416C22.5 14.3555 22.2639 13.7882 21.7916 13.3395C21.3194 12.8909 20.7222 12.6666 20 12.6666C19.2778 12.6666 18.6805 12.8909 18.2083 13.3395C17.7361 13.7882 17.5 14.3555 17.5 15.0416C17.5 15.7277 17.7361 16.2951 18.2083 16.7437C18.6805 17.1923 19.2778 17.4166 20 17.4166Z" fill="black"/>
</svg>
