<svg width="25" height="48" viewBox="0 0 25 48" fill="none" xmlns="http://www.w3.org/2000/svg">
<path d="M14.9355 0.185214C14.1534 0.45595 11.9274 1.82466 10.2879 3.02793C9.5058 3.61452 8.07692 4.86291 7.12935 5.82552C3.51955 9.4654 1.44392 13.3309 0.345939 18.4749C0.0601633 19.8135 0.0150408 20.5204 0 23.1375C0 25.9652 0.0300817 26.3563 0.406102 27.8754C1.11302 30.7933 1.74474 32.4177 3.12849 34.7641C5.35453 38.5393 9.00945 42.2093 12.7697 44.4203C16.0486 46.3455 20.1547 47.6992 23.3434 47.9098L24.8775 48V45.5333C24.8775 42.856 24.7422 41.6829 24.2458 40.0584C23.6291 38.0129 22.7417 36.5238 21.0572 34.749C19.7185 33.3352 18.3197 32.2823 15.5823 30.6579C13.266 29.2892 12.4087 28.5071 9.73141 25.3636C8.25741 23.6339 7.82123 23.4082 6.78341 23.8595C5.95617 24.2355 5.55006 24.9725 5.68543 25.905C5.8208 26.7624 6.04641 27.0782 8.51311 29.6502C12.3936 33.7263 12.6945 34.0872 12.6945 34.6588C12.6945 35.6214 11.8221 36.3734 10.9648 36.1629C10.6339 36.0726 5.83584 31.049 4.3468 29.229C1.8801 26.2209 2.84272 22.1749 6.30211 21.092L7.12935 20.8212L7.03911 18.7155C6.91878 16.1736 7.09927 14.7899 7.74603 13C8.87409 9.85646 11.2205 7.34465 15.5522 4.59217C17.3421 3.46411 17.8083 2.9076 17.8083 1.94499C17.8083 0.410825 16.5148 -0.386337 14.9355 0.185214Z" fill="white"/>
</svg>
